<svg width="432" height="172" viewBox="0 0 432 172" fill="none" xmlns="http://www.w3.org/2000/svg">
    <path d="M351.5 155.583C388.549 155.583 418.583 125.549 418.583 88.5C418.583 51.4509 388.549 21.4167 351.5 21.4167C314.451 21.4167 284.417 51.4509 284.417 88.5C284.417 125.549 314.451 155.583 351.5 155.583Z" stroke="currentColor" stroke-width="12.5" stroke-linecap="round" stroke-linejoin="round" />
    <path d="M366.996 61.6667L405.502 128.348" stroke="currentColor" stroke-width="12.5" stroke-linecap="round" stroke-linejoin="round" />
    <path d="M336.004 61.6667H413.015" stroke="currentColor" stroke-width="12.5" stroke-linecap="round" stroke-linejoin="round" />
    <path d="M320.508 88.5L359.013 21.8192" stroke="currentColor" stroke-width="12.5" stroke-linecap="round" stroke-linejoin="round" />
    <path d="M336.004 115.333L297.498 48.6525" stroke="currentColor" stroke-width="12.5" stroke-linecap="round" stroke-linejoin="round" />
    <path d="M366.996 115.333H289.985" stroke="currentColor" stroke-width="12.5" stroke-linecap="round" stroke-linejoin="round" />
    <path d="M382.492 88.5L343.987 155.181" stroke="currentColor" stroke-width="12.5" stroke-linecap="round" stroke-linejoin="round" />
    <path d="M49.68 112.648H26.496L20.88 139H3.024L26.64 38.2H48.96L74.448 139H55.584L49.68 112.648ZM30.24 95.8H45.936L37.728 64.696L30.24 95.8ZM122.772 135.688C114.228 138.856 106.26 140.44 98.8684 140.44C90.5164 140.44 83.7484 138.232 78.5644 133.816C73.3804 129.4 70.7884 122.344 70.7884 112.648V66.424C70.7884 59.128 71.7964 53.608 73.8124 49.864C75.9244 46.12 79.0924 42.952 83.3164 40.36C87.5404 37.96 92.7244 36.76 98.8684 36.76C106.356 36.76 113.124 38.344 119.172 41.512L114.708 55.912C110.292 54.28 105.444 53.464 100.164 53.464C96.1324 53.464 92.8684 54.568 90.3724 56.776C87.8764 58.984 86.6284 61.768 86.6284 65.128V112.36C86.6284 120.424 91.1404 124.456 100.164 124.456C103.044 124.456 105.924 124.168 108.804 123.592C111.684 122.92 115.524 121.96 120.324 120.712L122.772 135.688ZM188.535 85.72L171.687 139H159.591L143.031 85.864V139H127.191V38.2H143.031L165.639 104.872L188.535 38.2H204.375V139H188.535V85.72ZM219.976 38.2H268.072V54.04H235.816V79.528H255.544L251.08 94.648H235.816V124.6H267.784V139H219.976V38.2Z" fill="currentColor" />
</svg>