<svg width="266" height="105" viewBox="0 0 266 105" fill="none" xmlns="http://www.w3.org/2000/svg">
    <path d="M46.68 76.648H23.496L17.88 103H0.0240002L23.64 2.19999H45.96L71.448 103H52.584L46.68 76.648ZM27.24 59.8H42.936L34.728 28.696L27.24 59.8ZM119.772 99.688C111.228 102.856 103.26 104.44 95.8684 104.44C87.5164 104.44 80.7484 102.232 75.5644 97.816C70.3804 93.4 67.7884 86.344 67.7884 76.648V30.424C67.7884 23.128 68.7964 17.608 70.8124 13.864C72.9244 10.12 76.0924 6.95199 80.3164 4.35999C84.5404 1.95999 89.7244 0.759995 95.8684 0.759995C103.356 0.759995 110.124 2.34399 116.172 5.51199L111.708 19.912C107.292 18.28 102.444 17.464 97.1644 17.464C93.1324 17.464 89.8684 18.568 87.3724 20.776C84.8764 22.984 83.6284 25.768 83.6284 29.128V76.36C83.6284 84.424 88.1404 88.456 97.1644 88.456C100.044 88.456 102.924 88.168 105.804 87.592C108.684 86.92 112.524 85.96 117.324 84.712L119.772 99.688ZM185.535 49.72L168.687 103H156.591L140.031 49.864V103H124.191V2.19999H140.031L162.639 68.872L185.535 2.19999H201.375V103H185.535V49.72ZM216.976 2.19999H265.072V18.04H232.816V43.528H252.544L248.08 58.648H232.816V88.6H264.784V103H216.976V2.19999Z" fill="currentColor" />
</svg>